PathFileType	4	(X/Y/Z)	/Volumes/GoogleDrive/My Drive/Research/Stanford/Projects/Digital Athlete Project/Sprinting/Sprint Simulation/sprinter/subjects/JA1/experimental_data/TRC/static.trc
DataRate	CameraRate	NumFrames	NumMarkers	Units	OrigDataRate	OrigDataStartFrame	OrigNumFrames
250.000000	250.000000	5	57	mm	250.000000	566	646
Frame#	Time	C7			RSH			LSH			MAN			T7			LARM			LELB			LFOREARM			LWR			RARM			RELB			RFOREARM			RWR			RASI			LASI			SACR			P1			P2			P3			LTHLP			LTHLD			LTHAP			LTHAD			LLEPI			LPAT			LMEPI			LTIAP			LTIAD			LTILAT			LLMAL			LMMAL			LHEEL			LMFS			LMFL			LP1MT			LTOE			LP5MT			RTHLP			RTHLD			RTHAP			RTHAD			RLEPI			RPAT			RMEPI			RTIAP			RTIAD			RTILAT			RLMAL			RMMAL			RHEEL			RMFS			RMFL			RP1MT			RTOE			RP5MT			x56			x57			
		X1	Y1	Z1	X2	Y2	Z2	X3	Y3	Z3	X4	Y4	Z4	X5	Y5	Z5	X6	Y6	Z6	X7	Y7	Z7	X8	Y8	Z8	X9	Y9	Z9	X10	Y10	Z10	X11	Y11	Z11	X12	Y12	Z12	X13	Y13	Z13	X14	Y14	Z14	X15	Y15	Z15	X16	Y16	Z16	X17	Y17	Z17	X18	Y18	Z18	X19	Y19	Z19	X20	Y20	Z20	X21	Y21	Z21	X22	Y22	Z22	X23	Y23	Z23	X24	Y24	Z24	X25	Y25	Z25	X26	Y26	Z26	X27	Y27	Z27	X28	Y28	Z28	X29	Y29	Z29	X30	Y30	Z30	X31	Y31	Z31	X32	Y32	Z32	X33	Y33	Z33	X34	Y34	Z34	X35	Y35	Z35	X36	Y36	Z36	X37	Y37	Z37	X38	Y38	Z38	X39	Y39	Z39	X40	Y40	Z40	X41	Y41	Z41	X42	Y42	Z42	X43	Y43	Z43	X44	Y44	Z44	X45	Y45	Z45	X46	Y46	Z46	X47	Y47	Z47	X48	Y48	Z48	X49	Y49	Z49	X50	Y50	Z50	X51	Y51	Z51	X52	Y52	Z52	X53	Y53	Z53	X54	Y54	Z54	X55	Y55	Z55	X56	Y56	Z56	X57	Y57	Z57	
566	2.264000	-695.977661	1569.266235	312.203125	-650.448120	1558.546265	476.094421	-687.639038	1554.319702	156.138947	-539.177734	1483.809570	308.325684	-747.729614	1373.925293	319.129395	-708.728149	1376.206665	39.696125	-728.199768	1251.544678	-17.196121	-681.776062	1143.406006	-103.611954	-661.024780	1019.317566	-164.741837	-669.293213	1388.713867	587.087585	-699.080383	1263.850342	651.209290	-656.808594	1153.616089	734.860107	-638.870117	1031.234131	797.763123	-533.024292	1086.696045	400.992126	-559.240295	1090.527710	185.470764	-730.233887	1134.306274	319.779785	-751.234985	1108.414185	268.480164	-736.322083	1103.859131	373.679535	-775.313477	1050.275513	322.261230	-668.457397	798.275574	107.168007	-663.735168	684.261292	113.295418	-535.071045	784.023560	172.894638	-555.039307	675.080872	179.613571	-657.382507	558.942993	123.391129	-577.413391	560.492798	184.727356	-657.705750	541.527954	249.233856	-642.425110	381.309235	189.024200	-659.189880	243.501495	182.004547	-693.839111	320.892212	108.787743	-701.750549	102.553391	121.811859	-680.651672	112.765060	214.672318	-765.610107	60.956104	166.097031	-600.635864	94.644913	169.720673	-628.691956	69.701103	107.191338	-553.433838	46.372852	202.731049	-498.000641	58.733475	164.479370	-576.742859	36.043846	78.841789	-632.402588	825.415955	514.905090	-635.406738	711.682007	509.795044	-528.825806	782.815369	424.252258	-549.693359	686.459106	420.701477	-652.681580	559.859436	490.206696	-584.683594	551.006409	426.831085	-685.625549	544.124084	367.183502	-658.377625	344.069672	420.154358	-673.059265	218.028900	414.450043	-693.777954	338.557343	507.019043	-695.125854	102.966164	482.093292	-684.319397	112.880508	387.878021	-765.390564	59.424786	441.455017	-592.380127	97.986542	432.195709	-629.230957	69.670097	491.149231	-554.259460	49.027138	388.727600	-493.946045	58.848503	426.220795	-569.812500	40.678516	515.943909	-650.477905	956.249573	-195.811096	-628.838318	962.793884	832.940674
567	2.268000	-696.011414	1569.291016	312.235474	-650.449280	1558.517944	476.101105	-687.610596	1554.343994	156.060654	-539.207397	1483.801270	308.273163	-747.739929	1373.923340	319.255829	-708.821838	1376.196533	39.714951	-728.323120	1251.441406	-16.908821	-681.967102	1143.403687	-103.507652	-661.216675	1019.315735	-164.760086	-669.271423	1388.703003	587.108398	-699.125122	1263.857910	651.240479	-656.872925	1153.570679	734.852356	-638.935974	1031.192505	797.781616	-533.065735	1086.685791	401.016022	-559.264526	1090.539551	185.488327	-730.282959	1134.280640	319.769440	-751.234314	1108.457764	268.500519	-736.345459	1103.875732	373.726776	-775.346741	1050.332886	322.300720	-668.516113	798.276672	107.209930	-663.753357	684.222046	113.301704	-535.164001	784.059021	173.072296	-555.138184	675.106873	179.686417	-657.495056	558.819031	123.306740	-577.550903	560.508057	184.727844	-657.808411	541.534180	249.284637	-642.436462	381.304932	189.039078	-659.105347	243.504791	181.862793	-693.946655	320.874420	108.803459	-701.744812	102.576790	121.789291	-680.699341	112.731369	214.599564	-765.599548	60.915836	166.060059	-600.638367	94.665787	169.712891	-628.663452	69.778404	107.180420	-553.310364	46.365795	202.843750	-498.011169	58.722328	164.386963	-576.731506	36.079556	78.755249	-632.407288	825.404419	514.923523	-635.485291	711.710510	509.796387	-528.838440	782.784973	424.231812	-549.760071	686.491821	420.792969	-652.742493	559.813171	490.063568	-584.732666	551.013550	426.880219	-685.599548	544.143188	367.166626	-658.410400	344.064667	420.140259	-673.059143	218.054581	414.488190	-693.852783	338.547424	507.021820	-694.952271	103.042900	482.242889	-684.268066	112.886307	387.894226	-765.366272	59.237305	441.274933	-592.412903	97.966896	432.054260	-629.289062	69.642235	491.046326	-554.273499	49.133587	388.749756	-493.942322	58.915249	426.207062	-569.858643	40.659557	515.911987	-650.670227	956.247986	-195.891632	-628.904968	962.754333	832.973877
568	2.272000	-695.979858	1569.203491	312.261780	-650.529602	1558.511230	476.084747	-687.710999	1554.357666	156.124664	-539.248535	1483.814209	308.396210	-747.837097	1373.965820	319.235718	-708.932007	1376.176025	39.770538	-728.382019	1251.514160	-17.041454	-682.111328	1143.391724	-103.520264	-661.397644	1019.304321	-164.735565	-669.386780	1388.651855	587.059082	-699.150452	1263.808960	651.232849	-657.089478	1153.534302	734.713989	-639.080261	1031.151245	797.677917	-533.090576	1086.690552	401.083984	-559.310974	1090.547119	185.579926	-730.374573	1134.358154	319.739288	-751.330444	1108.479980	268.554413	-736.436768	1104.044312	373.657410	-775.387573	1050.330078	322.306915	-668.568054	798.261719	107.225990	-663.830811	684.261963	113.292786	-535.224365	784.034241	173.110107	-555.208069	675.080933	179.604172	-657.636169	558.765442	123.444733	-577.661011	560.499817	184.773209	-657.864868	541.514160	249.219543	-642.503601	381.322601	188.981827	-659.129456	243.485260	181.832626	-693.944397	320.881256	108.755974	-701.772034	102.541161	121.817047	-680.633057	112.774857	214.722809	-765.603455	60.893425	166.045670	-600.552063	94.669838	169.603775	-628.585327	69.748367	107.061943	-553.406067	46.359661	202.759811	-497.992889	58.757912	164.443192	-576.709473	36.089355	78.777367	-632.451782	825.410339	514.942444	-635.473755	711.688049	509.878601	-528.926453	782.862854	424.383240	-549.807678	686.477661	420.825226	-652.736572	559.868958	490.263611	-584.753113	551.014343	426.830048	-685.687439	544.168701	367.174774	-658.429993	344.076324	420.200836	-673.127319	218.081970	414.570435	-693.909790	338.528503	507.040344	-694.863831	103.157204	482.350311	-684.094971	112.899521	387.759705	-765.418091	59.246395	441.339386	-592.350586	97.919205	431.982452	-629.249390	69.639107	491.137146	-554.246704	49.049984	388.764954	-493.950562	58.897572	426.190460	-569.844482	40.663391	515.908203	-650.869934	956.236877	-195.848251	-629.008911	962.710388	832.889587
569	2.276000	-696.034790	1569.267822	312.234955	-650.516968	1558.508667	476.178955	-687.718201	1554.375488	156.081406	-539.274109	1483.782837	308.377014	-747.857239	1373.947388	319.311005	-709.023743	1376.183105	39.763756	-728.523438	1251.476196	-16.913155	-682.249451	1143.379395	-103.503891	-661.592163	1019.281738	-164.743103	-669.371460	1388.656128	587.080750	-699.209351	1263.810425	651.238525	-657.129456	1153.524658	734.682861	-639.137573	1031.120483	797.697815	-533.121704	1086.732422	401.127441	-559.351929	1090.539062	185.603424	-730.389526	1134.329468	319.786438	-751.351074	1108.461304	268.509125	-741.052307	1104.538574	374.468903	-775.444275	1050.297485	322.252472	-668.574585	798.286133	107.207726	-663.909912	684.255432	113.323334	-535.270996	784.048584	173.170120	-555.322327	675.106018	179.742416	-657.626526	558.892273	123.357666	-577.706543	560.533386	184.820694	-657.964722	541.505554	249.231232	-642.620422	381.369141	189.016525	-659.165649	243.501999	181.813751	-694.039734	320.867310	108.773254	-701.756531	102.548103	121.805046	-680.696350	112.744064	214.584991	-765.574707	60.922745	166.054214	-600.581665	94.657776	169.643204	-628.712769	69.737389	107.136955	-553.362976	46.341755	202.811478	-497.985718	58.769958	164.368149	-576.653564	36.090866	78.744408	-632.479919	825.403809	514.943787	-635.610107	711.691833	509.735596	-528.903564	782.791199	424.302490	-549.807922	686.469604	420.811462	-652.793579	559.876099	490.176483	-584.794861	551.025635	426.855896	-685.692566	544.143372	367.203644	-658.425171	344.064667	420.227936	-673.126038	218.082230	414.584442	-693.875854	338.554199	507.079132	-695.142456	103.020821	482.063751	-684.369568	112.835785	387.999756	-765.383545	59.242401	441.321228	-592.381836	97.947334	432.170715	-629.271545	69.611053	491.047363	-554.303406	49.094707	388.787201	-493.906860	58.892353	426.197205	-569.849426	40.655216	515.896545	-651.093079	956.209045	-195.867950	-629.075867	962.667786	832.938049
570	2.280000	-696.025391	1569.216187	312.337097	-650.583252	1558.520386	476.188171	-687.776550	1554.338379	156.181778	-539.333679	1483.816772	308.477203	-747.894165	1373.926758	319.321381	-709.114685	1376.194214	39.847763	-728.596191	1251.533813	-17.004850	-682.407043	1143.410278	-103.434273	-661.810791	1019.311584	-164.703232	-669.401184	1388.594238	587.139648	-699.245422	1263.754028	651.211304	-657.153687	1153.461548	734.760742	-639.217102	1031.063232	797.701477	-533.203430	1086.725342	401.114685	-559.429932	1090.469849	185.694672	-730.556946	1134.313110	320.065430	-751.377869	1108.403809	268.597992	-736.479126	1103.908325	373.823761	-775.462280	1050.312012	322.358307	-668.652039	798.263855	107.215637	-664.012817	684.257019	113.338760	-535.300171	783.997009	173.079346	-555.357300	675.070740	179.718323	-657.705322	558.891541	123.256752	-577.821106	560.503113	184.877487	-658.080627	541.512329	249.291656	-642.661316	381.353333	189.008942	-659.200073	243.477890	181.788254	-694.000916	320.851166	108.755135	-701.772217	102.528984	121.817856	-680.635010	112.756752	214.695465	-765.608215	60.948967	166.061142	-600.581421	94.655556	169.578796	-628.668701	69.749130	107.164894	-553.480225	46.341831	202.717468	-497.995911	58.762482	164.423645	-576.737366	36.109489	78.832680	-632.527893	825.413452	515.008728	-635.548523	711.681946	509.925415	-529.006104	782.832336	424.463226	-549.828003	686.426392	420.618774	-652.813477	559.863586	490.314362	-584.826599	551.006958	426.909546	-685.744751	544.157654	367.250305	-658.491943	344.048248	420.230621	-673.116577	218.079193	414.585388	-693.876099	338.536987	507.093781	-694.963440	103.110733	482.231140	-684.422852	112.867325	388.056030	-765.378540	59.364964	441.475342	-592.425293	97.934792	432.110260	-629.226807	69.720116	491.241394	-554.305420	48.997463	388.719452	-493.916229	58.898987	426.199402	-569.788086	40.680870	515.959290	-651.342773	956.238403	-195.843185	-629.186340	962.613708	832.900146
